<mxfile host="app.diagrams.net" modified="2023-04-01T06:14:47.665Z" agent="Mozilla/5.0 (Windows NT 10.0; Win64; x64) AppleWebKit/537.36 (KHTML, like Gecko) Chrome/111.0.0.0 Safari/537.36" etag="1o_56Ii5OsZu0gDYbLT5" version="21.1.2" type="github">
  <diagram name="第 1 页" id="Qb4k8GEXQSuuynJWTsJw">
    <mxGraphModel dx="1434" dy="788" grid="1" gridSize="10" guides="1" tooltips="1" connect="1" arrows="1" fold="1" page="1" pageScale="1" pageWidth="827" pageHeight="1169" math="0" shadow="0">
      <root>
        <mxCell id="0" />
        <mxCell id="1" parent="0" />
        <mxCell id="3bvcIT2ax03vsCoDVFyQ-10" value="" style="rounded=1;whiteSpace=wrap;html=1;dashed=1;fillColor=#f5f5f5;fontColor=#333333;strokeColor=#666666;" vertex="1" parent="1">
          <mxGeometry x="62.5" y="255" width="635" height="170" as="geometry" />
        </mxCell>
        <mxCell id="3bvcIT2ax03vsCoDVFyQ-6" style="edgeStyle=orthogonalEdgeStyle;rounded=0;orthogonalLoop=1;jettySize=auto;html=1;exitX=1;exitY=0.5;exitDx=0;exitDy=0;" edge="1" parent="1" source="3bvcIT2ax03vsCoDVFyQ-3" target="3bvcIT2ax03vsCoDVFyQ-4">
          <mxGeometry relative="1" as="geometry" />
        </mxCell>
        <mxCell id="3bvcIT2ax03vsCoDVFyQ-3" value="服务A" style="ellipse;whiteSpace=wrap;html=1;fillColor=#dae8fc;strokeColor=#6c8ebf;" vertex="1" parent="1">
          <mxGeometry x="100" y="300" width="120" height="80" as="geometry" />
        </mxCell>
        <mxCell id="3bvcIT2ax03vsCoDVFyQ-7" style="edgeStyle=orthogonalEdgeStyle;rounded=0;orthogonalLoop=1;jettySize=auto;html=1;exitX=1;exitY=0.5;exitDx=0;exitDy=0;" edge="1" parent="1" source="3bvcIT2ax03vsCoDVFyQ-4" target="3bvcIT2ax03vsCoDVFyQ-5">
          <mxGeometry relative="1" as="geometry" />
        </mxCell>
        <mxCell id="3bvcIT2ax03vsCoDVFyQ-4" value="服务B" style="ellipse;whiteSpace=wrap;html=1;fillColor=#ffe6cc;strokeColor=#d79b00;" vertex="1" parent="1">
          <mxGeometry x="320" y="300" width="120" height="80" as="geometry" />
        </mxCell>
        <mxCell id="3bvcIT2ax03vsCoDVFyQ-5" value="服务C" style="ellipse;whiteSpace=wrap;html=1;fillColor=#f8cecc;strokeColor=#b85450;" vertex="1" parent="1">
          <mxGeometry x="540" y="300" width="120" height="80" as="geometry" />
        </mxCell>
        <mxCell id="3bvcIT2ax03vsCoDVFyQ-8" value="机密数据x" style="text;html=1;strokeColor=none;fillColor=none;align=center;verticalAlign=middle;whiteSpace=wrap;rounded=0;" vertex="1" parent="1">
          <mxGeometry x="240" y="310" width="60" height="30" as="geometry" />
        </mxCell>
        <mxCell id="3bvcIT2ax03vsCoDVFyQ-9" value="机密数据x" style="text;html=1;strokeColor=none;fillColor=none;align=center;verticalAlign=middle;whiteSpace=wrap;rounded=0;" vertex="1" parent="1">
          <mxGeometry x="460" y="310" width="60" height="30" as="geometry" />
        </mxCell>
        <mxCell id="3bvcIT2ax03vsCoDVFyQ-11" value="可信网络环境" style="text;html=1;strokeColor=none;fillColor=none;align=center;verticalAlign=middle;whiteSpace=wrap;rounded=0;" vertex="1" parent="1">
          <mxGeometry x="70" y="260" width="85" height="30" as="geometry" />
        </mxCell>
        <mxCell id="3bvcIT2ax03vsCoDVFyQ-14" value="符合服务A期望" style="text;html=1;strokeColor=none;fillColor=none;align=center;verticalAlign=middle;whiteSpace=wrap;rounded=0;" vertex="1" parent="1">
          <mxGeometry x="225" y="380" width="90" height="30" as="geometry" />
        </mxCell>
        <mxCell id="3bvcIT2ax03vsCoDVFyQ-15" value="不符合服务A期望" style="text;html=1;strokeColor=none;fillColor=none;align=center;verticalAlign=middle;whiteSpace=wrap;rounded=0;" vertex="1" parent="1">
          <mxGeometry x="437.5" y="380" width="105" height="30" as="geometry" />
        </mxCell>
        <mxCell id="3bvcIT2ax03vsCoDVFyQ-17" value="&lt;font style=&quot;font-size: 18px;&quot;&gt;✔&lt;/font&gt;" style="text;html=1;strokeColor=none;fillColor=none;align=center;verticalAlign=middle;whiteSpace=wrap;rounded=0;fontColor=#FF0000;" vertex="1" parent="1">
          <mxGeometry x="240" y="350" width="60" height="30" as="geometry" />
        </mxCell>
        <mxCell id="3bvcIT2ax03vsCoDVFyQ-18" value="&lt;font style=&quot;font-size: 18px;&quot; color=&quot;#ff0000&quot;&gt;✘&lt;/font&gt;" style="text;html=1;strokeColor=none;fillColor=none;align=center;verticalAlign=middle;whiteSpace=wrap;rounded=0;" vertex="1" parent="1">
          <mxGeometry x="460" y="350" width="60" height="30" as="geometry" />
        </mxCell>
      </root>
    </mxGraphModel>
  </diagram>
</mxfile>
